<?xml version="1.0" encoding="utf-8"?>
<!-- Generator: Adobe Illustrator 16.0.0, SVG Export Plug-In . SVG Version: 6.00 Build 0)  -->
<!DOCTYPE svg PUBLIC "-//W3C//DTD SVG 1.1//EN" "http://www.w3.org/Graphics/SVG/1.1/DTD/svg11.dtd">
<svg version="1.1" id="Layer_1" xmlns="http://www.w3.org/2000/svg" xmlns:xlink="http://www.w3.org/1999/xlink" x="0px" y="0px"
	 width="1600px" height="1200px" viewBox="0 0 1600 1200" enable-background="new 0 0 1600 1200" xml:space="preserve">
<title>Blue Splat - high res</title>
<g>
	<title>Layer 1</title>
	<g id="layer1">
		<path id="path2529" fill="#57CBF2" stroke="#57CBF2" stroke-width="0.9998" d="M474.065,1141.019
			c-9.725-10.399-14.333-33.042-10.384-51.015c3.931-17.885,5.269-20.154,46.014-78.044
			c60.225-85.567,81.675-131.528,123.524-264.671c1.834-5.837-7.063-13.132-16.018-13.132c-11.64,0-20.549,7.308-26.125,21.43
			c-6.29,15.929-10.412,19.186-26.595,21.012c-15.441,1.742-33.835-4.46-41.176-13.885c-5.191-6.665-5.175-8.378,0.303-31.073
			c5.473-22.676,5.492-24.688,0.364-35.983c-15.239-33.566-52.86-37.561-74.442-7.903c-14.516,19.947-46.141,54.198-64.455,69.806
			c-32.421,27.631-53.614,28.513-75.465,3.14c-7.227-8.392-9.581-14.094-9.581-23.202c0-10.494,1.579-13.297,12.057-21.396
			c15.436-11.934,37.213-22.116,71.535-33.448c46.732-15.431,67.314-29.138,78.964-52.591c8.664-17.443,4.635-38.859-8.416-44.734
			c-19.174-8.632-41.742,5.85-80.17,51.441c-35.652,42.297-54.94,52.675-94.761,50.983c-27.527-1.169-40.585-7.371-55.626-26.419
			c-13.716-17.371-17.68-30.129-16.303-52.484c1.014-16.469,2.736-21.259,11.454-31.873c12.201-14.852,34.342-27.361,58.956-33.309
			c10.047-2.428,41.031-5.401,70.731-6.789c65.694-3.068,85.916-6.426,158.114-26.254c36.502-10.023,47.456-16.909,47.456-29.831
			c0-7.833-13.274-18.879-25.171-20.946c-8.739-1.518-74.895-6.95-84.699-6.954c-8.93-0.004-24.771-13.248-28.146-23.531
			c-4.86-14.808,2.272-26.759,18.112-30.347c16.863-3.819,29.342-0.504,60.459,16.064c14.128,7.521,35.533,16.203,47.568,19.292
			c21.015,5.394,22.449,5.435,36.176,1.024c27.614-8.871,30.941-24.521,11.87-55.835c-15.735-25.837-44.684-51.856-69.344-62.328
			c-37.227-15.808-61.478-40.913-76.647-79.348c-6.038-15.301-7.454-24.637-7.378-48.681c0.082-26.371,1.059-31.508,8.599-45.231
			c18.801-34.216,56.09-35.167,80.278-2.047c7.754,10.617,10.101,19.665,18.92,72.97c11.553,69.816,15.972,81.313,41.554,108.103
			c26.485,27.736,49.793,36.622,64.22,24.486c9.457-7.955,10.8-16.674,5.062-32.855c-2.836-7.999-5.988-23.062-7.004-33.474
			c-1.599-16.375-0.502-22.437,8.126-44.904c16.169-42.108,12.998-60.313-17.727-101.78c-17.871-24.12-19.604-34.625-7.506-45.518
			c15.059-13.558,36.681-18.916,44.47-11.021c2.474,2.507,3.375,20.302,2.845,56.118c-0.859,57.946-2.016,53.564,24.895,94.367
			c9.254,14.032,17.516,43.907,17.597,63.63c0.032,7.781,2.169,16.134,4.996,19.53c8.943,10.74,39.462,13.792,52.342,5.235
			c2.328-1.546,10.572-11.056,18.321-21.133c8.061-10.481,19.646-21.414,27.076-25.55c11.13-6.196,15.489-7.055,30.507-6.007
			c14.597,1.018,19.702,2.88,30.592,11.155c10.273,7.808,15.712,9.934,25.416,9.934c25.709,0,55.152-20.546,55.152-38.486
			c0-4.365-4.356-16.287-9.682-26.492c-14.297-27.402-15.105-37.864-4.909-63.525c17.584-44.251,33.335-56.546,72.463-56.563
			c32.54-0.014,54.88,13.052,60.55,35.414c3.793,14.961,1.036,26.07-14.656,59.052c-34.124,71.721-36.234,93.952-10.942,115.228
			c6.504,5.472,17.892,11.477,25.306,13.346c21.777,5.488,37.288-1.134,66.882-28.553c29.573-27.401,44.799-33.978,63.469-27.416
			c9.853,3.463,12.284,6.145,16.568,18.279c2.761,7.821,5.021,17.206,5.021,20.854c0,28.759-31.426,57.27-72.34,65.631
			c-8.842,1.807-23,6.189-31.463,9.739c-48.541,20.359-27.962,62.81,30.538,62.999c25.931,0.084,48.369-7.937,76.479-27.338
			c51.165-35.314,114.198-73.1,139.332-83.524c40.356-16.738,95.443-23.153,134.196-15.629c39.983,7.763,55.464,41.673,34.863,76.37
			c-10.783,18.164-13.945,18.968-52.237,13.302c-61.417-9.089-115.007-5.015-168.482,12.808
			c-44.893,14.962-93.256,37.015-101.556,46.309c-17.101,19.146-12.97,39.347,10.779,52.709
			c28.664,16.127,35.769,23.057,37.592,36.662c2.422,18.072-3.143,26.819-25.42,39.965c-29.393,17.343-37.871,33.237-27.056,50.722
			c6.713,10.854,17.549,18.375,37.288,25.882c25.828,9.823,43.619,11.222,72.946,5.733c35.098-6.568,59.461-4.521,83.507,7.02
			c39.315,18.868,60.145,41.762,73.61,80.904c4.672,13.579,6.023,26.195,5.937,55.442c-0.126,42.748-4.113,56.009-21.334,70.954
			c-39.017,33.862-98.798-12.636-119.706-93.108c-9.02-34.719-19.23-53.554-36.787-67.863
			c-22.981-18.73-79.932-37.985-102.034-34.497c-14.11,2.227-35.221,20.063-39.661,33.511c-7.481,22.658-2.416,36.709,24.083,66.803
			c50.416,57.254,64.966,80.749,68.249,110.198c2.104,18.888-1.781,26.174-17.984,33.713c-16.432,7.647-30.033,9.55-44.628,6.244
			c-17.262-3.91-27.054-13.432-28.536-27.748c-7.761-74.998-13.268-94.129-32.544-113.073
			c-20.117-19.77-52.976-27.133-79.492-17.812c-20.563,7.228-24.185,17.382-19.438,54.512c1.709,13.369,1.273,20.97-1.447,25.245
			c-4.092,6.431-21.201,13.773-32.096,13.773c-17.482,0-43.633-33.85-57.957-75.022c-8.738-25.115-17.211-33.698-33.269-33.698
			c-18.217,0-26.974,6.356-33.073,24.007c-8.381,24.25-5.033,46.755,14.01,94.18c18.568,46.242,20.918,51.007,50.684,102.771
			c16.737,29.107,22.116,41.393,23.26,53.127c1.957,20.067-3.641,33.809-16.445,40.377c-19.391,9.945-31.159,5.553-46.54-17.372
			c-14.943-22.274-19.425-39.677-22.865-88.804c-4.891-69.815-21.667-130.979-50.152-182.839
			c-13.89-25.289-19.085-30.313-31.339-30.313c-25.561,0-45.111,22.142-45.372,51.385c-0.142,15.834,1.185,19.539,13.349,37.318
			c7.429,10.857,15.71,25.199,18.403,31.872c4.948,12.26,6.093,42.767,2.072,55.216c-3.368,10.431-20.482,16.218-47.973,16.223
			c-29.303,0.006-39.915-4.27-46.864-18.878c-8.386-17.63-6.55-34.465,7.64-70.039c15.059-37.757,17.175-63.742,6.763-83.026
			c-6.401-11.856-20.353-22.775-29.101-22.775c-18.858,0-47.836,53.466-69.272,127.813c-11.429,39.635-15.321,58.565-28.773,139.931
			c-8.969,54.243-14.083,69.522-29.091,86.919C537.804,1145.695,489.052,1157.045,474.065,1141.019L474.065,1141.019z"/>
	</g>
</g>
<text transform="matrix(1 0 0 1 643.2695 644.4727)" fill="#FFFFFF" font-family="'NinaLight'" font-size="258.4488">ACK</text>
</svg>
